<mxfile host="Electron" modified="2023-11-14T17:40:18.812Z" agent="Mozilla/5.0 (Windows NT 10.0; Win64; x64) AppleWebKit/537.36 (KHTML, like Gecko) draw.io/22.0.3 Chrome/114.0.5735.289 Electron/25.8.4 Safari/537.36" etag="krSjatwv3SqfSICvRkqC" version="22.0.3" type="device">
  <diagram name="Page-1" id="-3UO-knmtwzRtR1OATSV">
    <mxGraphModel dx="1036" dy="606" grid="1" gridSize="10" guides="1" tooltips="1" connect="1" arrows="1" fold="1" page="1" pageScale="1" pageWidth="850" pageHeight="1100" math="0" shadow="0">
      <root>
        <mxCell id="0" />
        <mxCell id="1" parent="0" />
        <mxCell id="rZooI-E6da-HcJg8-sCL-3" value="" style="edgeStyle=orthogonalEdgeStyle;rounded=0;orthogonalLoop=1;jettySize=auto;html=1;" parent="1" source="rZooI-E6da-HcJg8-sCL-1" target="rZooI-E6da-HcJg8-sCL-2" edge="1">
          <mxGeometry relative="1" as="geometry" />
        </mxCell>
        <mxCell id="rZooI-E6da-HcJg8-sCL-1" value="start" style="ellipse;whiteSpace=wrap;html=1;" parent="1" vertex="1">
          <mxGeometry x="370" y="10" width="120" height="80" as="geometry" />
        </mxCell>
        <mxCell id="rZooI-E6da-HcJg8-sCL-5" value="" style="edgeStyle=orthogonalEdgeStyle;rounded=0;orthogonalLoop=1;jettySize=auto;html=1;" parent="1" source="rZooI-E6da-HcJg8-sCL-2" target="rZooI-E6da-HcJg8-sCL-4" edge="1">
          <mxGeometry relative="1" as="geometry" />
        </mxCell>
        <mxCell id="rZooI-E6da-HcJg8-sCL-2" value="input n" style="shape=parallelogram;perimeter=parallelogramPerimeter;whiteSpace=wrap;html=1;fixedSize=1;" parent="1" vertex="1">
          <mxGeometry x="370" y="130" width="120" height="60" as="geometry" />
        </mxCell>
        <mxCell id="rZooI-E6da-HcJg8-sCL-7" value="" style="edgeStyle=orthogonalEdgeStyle;rounded=0;orthogonalLoop=1;jettySize=auto;html=1;" parent="1" source="rZooI-E6da-HcJg8-sCL-4" target="rZooI-E6da-HcJg8-sCL-6" edge="1">
          <mxGeometry relative="1" as="geometry" />
        </mxCell>
        <mxCell id="rZooI-E6da-HcJg8-sCL-4" value="i=0;i&amp;lt;n" style="rounded=0;whiteSpace=wrap;html=1;" parent="1" vertex="1">
          <mxGeometry x="370" y="230" width="120" height="60" as="geometry" />
        </mxCell>
        <mxCell id="rZooI-E6da-HcJg8-sCL-9" value="" style="edgeStyle=orthogonalEdgeStyle;rounded=0;orthogonalLoop=1;jettySize=auto;html=1;" parent="1" source="rZooI-E6da-HcJg8-sCL-6" target="rZooI-E6da-HcJg8-sCL-8" edge="1">
          <mxGeometry relative="1" as="geometry" />
        </mxCell>
        <mxCell id="rZooI-E6da-HcJg8-sCL-6" value="input a[i]" style="shape=parallelogram;perimeter=parallelogramPerimeter;whiteSpace=wrap;html=1;fixedSize=1;rounded=0;" parent="1" vertex="1">
          <mxGeometry x="370" y="370" width="120" height="60" as="geometry" />
        </mxCell>
        <mxCell id="rZooI-E6da-HcJg8-sCL-10" style="edgeStyle=orthogonalEdgeStyle;rounded=0;orthogonalLoop=1;jettySize=auto;html=1;entryX=1;entryY=0.5;entryDx=0;entryDy=0;" parent="1" source="rZooI-E6da-HcJg8-sCL-8" target="rZooI-E6da-HcJg8-sCL-4" edge="1">
          <mxGeometry relative="1" as="geometry">
            <Array as="points">
              <mxPoint x="580" y="540" />
              <mxPoint x="580" y="260" />
            </Array>
          </mxGeometry>
        </mxCell>
        <mxCell id="rZooI-E6da-HcJg8-sCL-18" value="" style="edgeStyle=orthogonalEdgeStyle;rounded=0;orthogonalLoop=1;jettySize=auto;html=1;" parent="1" source="rZooI-E6da-HcJg8-sCL-8" target="rZooI-E6da-HcJg8-sCL-17" edge="1">
          <mxGeometry relative="1" as="geometry" />
        </mxCell>
        <mxCell id="rZooI-E6da-HcJg8-sCL-8" value="i++" style="whiteSpace=wrap;html=1;rounded=0;" parent="1" vertex="1">
          <mxGeometry x="370" y="510" width="120" height="60" as="geometry" />
        </mxCell>
        <mxCell id="rZooI-E6da-HcJg8-sCL-23" value="" style="edgeStyle=orthogonalEdgeStyle;rounded=0;orthogonalLoop=1;jettySize=auto;html=1;" parent="1" source="rZooI-E6da-HcJg8-sCL-12" target="rZooI-E6da-HcJg8-sCL-22" edge="1">
          <mxGeometry relative="1" as="geometry" />
        </mxCell>
        <mxCell id="rZooI-E6da-HcJg8-sCL-12" value="i=n;i&amp;gt;0" style="rounded=0;whiteSpace=wrap;html=1;" parent="1" vertex="1">
          <mxGeometry x="370" y="700" width="120" height="60" as="geometry" />
        </mxCell>
        <mxCell id="rZooI-E6da-HcJg8-sCL-15" style="edgeStyle=orthogonalEdgeStyle;rounded=0;orthogonalLoop=1;jettySize=auto;html=1;entryX=1;entryY=0.5;entryDx=0;entryDy=0;" parent="1" source="rZooI-E6da-HcJg8-sCL-16" target="rZooI-E6da-HcJg8-sCL-12" edge="1">
          <mxGeometry relative="1" as="geometry">
            <Array as="points">
              <mxPoint x="580" y="1200" />
              <mxPoint x="580" y="730" />
            </Array>
          </mxGeometry>
        </mxCell>
        <mxCell id="rZooI-E6da-HcJg8-sCL-29" value="" style="edgeStyle=orthogonalEdgeStyle;rounded=0;orthogonalLoop=1;jettySize=auto;html=1;" parent="1" source="rZooI-E6da-HcJg8-sCL-16" target="rZooI-E6da-HcJg8-sCL-28" edge="1">
          <mxGeometry relative="1" as="geometry" />
        </mxCell>
        <mxCell id="rZooI-E6da-HcJg8-sCL-16" value="i--" style="whiteSpace=wrap;html=1;rounded=0;" parent="1" vertex="1">
          <mxGeometry x="370" y="1170" width="120" height="60" as="geometry" />
        </mxCell>
        <mxCell id="rZooI-E6da-HcJg8-sCL-19" value="" style="edgeStyle=orthogonalEdgeStyle;rounded=0;orthogonalLoop=1;jettySize=auto;html=1;" parent="1" source="rZooI-E6da-HcJg8-sCL-17" target="rZooI-E6da-HcJg8-sCL-12" edge="1">
          <mxGeometry relative="1" as="geometry" />
        </mxCell>
        <mxCell id="rZooI-E6da-HcJg8-sCL-17" value="input&amp;nbsp;&lt;br&gt;add_value&lt;br&gt;add_index" style="shape=parallelogram;perimeter=parallelogramPerimeter;whiteSpace=wrap;html=1;fixedSize=1;" parent="1" vertex="1">
          <mxGeometry x="370" y="600" width="120" height="60" as="geometry" />
        </mxCell>
        <mxCell id="rZooI-E6da-HcJg8-sCL-26" value="" style="edgeStyle=orthogonalEdgeStyle;rounded=0;orthogonalLoop=1;jettySize=auto;html=1;" parent="1" source="rZooI-E6da-HcJg8-sCL-20" target="rZooI-E6da-HcJg8-sCL-25" edge="1">
          <mxGeometry relative="1" as="geometry" />
        </mxCell>
        <mxCell id="rZooI-E6da-HcJg8-sCL-20" value="if add_index = i&lt;br&gt;a[i]=add_value" style="rhombus;whiteSpace=wrap;html=1;" parent="1" vertex="1">
          <mxGeometry x="350" y="880" width="160" height="100" as="geometry" />
        </mxCell>
        <mxCell id="rZooI-E6da-HcJg8-sCL-24" value="" style="edgeStyle=orthogonalEdgeStyle;rounded=0;orthogonalLoop=1;jettySize=auto;html=1;" parent="1" source="rZooI-E6da-HcJg8-sCL-22" target="rZooI-E6da-HcJg8-sCL-20" edge="1">
          <mxGeometry relative="1" as="geometry" />
        </mxCell>
        <mxCell id="rZooI-E6da-HcJg8-sCL-22" value="a[i]=a[i-1]" style="rounded=0;whiteSpace=wrap;html=1;" parent="1" vertex="1">
          <mxGeometry x="370" y="800" width="120" height="60" as="geometry" />
        </mxCell>
        <mxCell id="rZooI-E6da-HcJg8-sCL-27" value="" style="edgeStyle=orthogonalEdgeStyle;rounded=0;orthogonalLoop=1;jettySize=auto;html=1;" parent="1" source="rZooI-E6da-HcJg8-sCL-25" target="rZooI-E6da-HcJg8-sCL-16" edge="1">
          <mxGeometry relative="1" as="geometry" />
        </mxCell>
        <mxCell id="rZooI-E6da-HcJg8-sCL-25" value="&lt;br&gt;&lt;span style=&quot;color: rgb(240, 240, 240); font-family: Helvetica; font-size: 12px; font-style: normal; font-variant-ligatures: normal; font-variant-caps: normal; font-weight: 400; letter-spacing: normal; orphans: 2; text-align: center; text-indent: 0px; text-transform: none; widows: 2; word-spacing: 0px; -webkit-text-stroke-width: 0px; background-color: rgb(27, 29, 30); text-decoration-thickness: initial; text-decoration-style: initial; text-decoration-color: initial; float: none; display: inline !important;&quot;&gt;a[i]=add_value&lt;/span&gt;&lt;br&gt;break" style="rounded=0;whiteSpace=wrap;html=1;" parent="1" vertex="1">
          <mxGeometry x="370" y="1020" width="120" height="60" as="geometry" />
        </mxCell>
        <mxCell id="rZooI-E6da-HcJg8-sCL-28" value="end" style="ellipse;whiteSpace=wrap;html=1;rounded=0;" parent="1" vertex="1">
          <mxGeometry x="390" y="1300" width="80" height="80" as="geometry" />
        </mxCell>
      </root>
    </mxGraphModel>
  </diagram>
</mxfile>
